<svg width="36" height="36" viewBox="0 0 36 36" fill="none" xmlns="http://www.w3.org/2000/svg">
<rect x="0.5" y="0.5" width="35" height="35" rx="17.5" fill="black"/>
<rect x="0.5" y="0.5" width="35" height="35" rx="17.5" stroke="black"/>
<path fill-rule="evenodd" clip-rule="evenodd" d="M9.89074 17.6569C10.5911 18.1539 11.6364 18.6128 12.9201 18.9742C14.4292 19.3991 16.2323 19.6832 18.0579 19.6832C19.8578 19.6832 21.6353 19.4007 23.1235 18.9763C24.3869 18.6163 25.4163 18.1585 26.109 17.6633V24.3568C26.109 24.3691 26.1042 24.3737 26.0922 24.3737H9.90731C9.89501 24.3737 9.89047 24.3689 9.89047 24.3568L9.89074 17.6569ZM16.1687 21.278C16.1898 21.0298 16.4074 20.8475 16.6523 20.8716L16.6533 20.8719C17.5689 20.9493 18.4305 20.9518 19.3485 20.8802C19.5955 20.8571 19.811 21.0534 19.83 21.2906C19.8495 21.5348 19.6629 21.7517 19.4196 21.7702C18.9566 21.8058 18.4987 21.8246 18.0568 21.8246C17.5762 21.8246 17.0776 21.8026 16.5739 21.7597C16.3312 21.7391 16.1484 21.5203 16.1687 21.278Z" fill="white"/>
<path fill-rule="evenodd" clip-rule="evenodd" d="M14.5479 10.9098C14.5479 10.4104 14.9571 10 15.4554 10H20.543C21.0413 10 21.4505 10.4101 21.4505 10.9098V12.3006C21.4505 12.5451 21.249 12.7477 21.0046 12.7477H21.0036C20.7598 12.7477 20.5587 12.5445 20.5587 12.3006V10.9098C20.5587 10.8978 20.5542 10.8929 20.5419 10.8929H15.4554C15.4434 10.8929 15.4386 10.8975 15.4386 10.9098V12.3006C15.4386 12.5456 15.237 12.7477 14.9927 12.7477C14.7489 12.7477 14.5479 12.5445 14.5479 12.3006V10.9098ZM9 14.1554C9 13.6557 9.40928 13.2453 9.90758 13.2453H26.0914H26.0924C26.5907 13.2453 27 13.6557 27 14.1554V24.3568C27 24.8565 26.5907 25.2669 26.0924 25.2669H9.90865C9.41035 25.2669 9.00107 24.8565 9.00107 24.3568V16.4645V16.4624V16.4602L9 16.4549V14.1554ZM26.0914 14.1385H9.90758C9.89555 14.1385 9.891 14.143 9.891 14.1554V16.4549C9.891 16.4704 9.91426 16.5479 10.0121 16.6527C10.1099 16.7575 10.2687 16.8849 10.4789 17.017C10.8988 17.2813 11.5209 17.5703 12.2812 17.8338C13.8015 18.3609 15.8778 18.7898 18.0579 18.7898C20.2072 18.7898 22.2544 18.3609 23.7533 17.8338C24.5029 17.5703 25.1159 17.2811 25.5297 17.017C25.7366 16.8851 25.893 16.7586 25.9892 16.6538C26.0844 16.55 26.1077 16.4747 26.1082 16.457V16.4549V14.1554C26.1082 14.1433 26.1036 14.1385 26.0914 14.1385ZM12.9201 18.9742C11.6364 18.6128 10.5911 18.1539 9.89074 17.6569L9.89047 24.3568C9.89047 24.3689 9.89501 24.3737 9.90731 24.3737H26.0922C26.1042 24.3737 26.109 24.3691 26.109 24.3568V17.6633C25.4163 18.1585 24.3869 18.6163 23.1235 18.9763C21.6353 19.4007 19.8578 19.6832 18.0579 19.6832C16.2323 19.6832 14.4292 19.3991 12.9201 18.9742Z" fill="white"/>
<path fill-rule="evenodd" clip-rule="evenodd" d="M9.89074 17.6569C10.5911 18.1539 11.6364 18.6128 12.9201 18.9742C14.4292 19.3991 16.2323 19.6832 18.0579 19.6832C19.8578 19.6832 21.6353 19.4007 23.1235 18.9763C24.3869 18.6163 25.4163 18.1585 26.109 17.6633V24.3568C26.109 24.3691 26.1042 24.3737 26.0922 24.3737H9.90731C9.89501 24.3737 9.89047 24.3689 9.89047 24.3568L9.89074 17.6569ZM16.1687 21.278C16.1898 21.0298 16.4074 20.8475 16.6523 20.8716L16.6533 20.8719C17.5689 20.9493 18.4305 20.9518 19.3485 20.8802C19.5955 20.8571 19.811 21.0534 19.83 21.2906C19.8495 21.5348 19.6629 21.7517 19.4196 21.7702C18.9566 21.8058 18.4987 21.8246 18.0568 21.8246C17.5762 21.8246 17.0776 21.8026 16.5739 21.7597C16.3312 21.7391 16.1484 21.5203 16.1687 21.278Z" stroke="white"/>
<path fill-rule="evenodd" clip-rule="evenodd" d="M14.5479 10.9098C14.5479 10.4104 14.9571 10 15.4554 10H20.543C21.0413 10 21.4505 10.4101 21.4505 10.9098V12.3006C21.4505 12.5451 21.249 12.7477 21.0046 12.7477H21.0036C20.7598 12.7477 20.5587 12.5445 20.5587 12.3006V10.9098C20.5587 10.8978 20.5542 10.8929 20.5419 10.8929H15.4554C15.4434 10.8929 15.4386 10.8975 15.4386 10.9098V12.3006C15.4386 12.5456 15.237 12.7477 14.9927 12.7477C14.7489 12.7477 14.5479 12.5445 14.5479 12.3006V10.9098ZM9 14.1554C9 13.6557 9.40928 13.2453 9.90758 13.2453H26.0914H26.0924C26.5907 13.2453 27 13.6557 27 14.1554V24.3568C27 24.8565 26.5907 25.2669 26.0924 25.2669H9.90865C9.41035 25.2669 9.00107 24.8565 9.00107 24.3568V16.4645V16.4624V16.4602L9 16.4549V14.1554ZM26.0914 14.1385H9.90758C9.89555 14.1385 9.891 14.143 9.891 14.1554V16.4549C9.891 16.4704 9.91426 16.5479 10.0121 16.6527C10.1099 16.7575 10.2687 16.8849 10.4789 17.017C10.8988 17.2813 11.5209 17.5703 12.2812 17.8338C13.8015 18.3609 15.8778 18.7898 18.0579 18.7898C20.2072 18.7898 22.2544 18.3609 23.7533 17.8338C24.5029 17.5703 25.1159 17.2811 25.5297 17.017C25.7366 16.8851 25.893 16.7586 25.9892 16.6538C26.0844 16.55 26.1077 16.4747 26.1082 16.457V16.4549V14.1554C26.1082 14.1433 26.1036 14.1385 26.0914 14.1385ZM12.9201 18.9742C11.6364 18.6128 10.5911 18.1539 9.89074 17.6569L9.89047 24.3568C9.89047 24.3689 9.89501 24.3737 9.90731 24.3737H26.0922C26.1042 24.3737 26.109 24.3691 26.109 24.3568V17.6633C25.4163 18.1585 24.3869 18.6163 23.1235 18.9763C21.6353 19.4007 19.8578 19.6832 18.0579 19.6832C16.2323 19.6832 14.4292 19.3991 12.9201 18.9742Z" stroke="white"/>
</svg>
