<svg
        class="h-6 w-5 flex-none"
        viewBox="0 0 14 15"
        fill="none"
        xmlns="http://www.w3.org/2000/svg">
        <g clip-path="url(#clip0_255_2335)">
          <path
            d="M12.8334 6.96334V7.5C12.8326 8.75792 12.4253 9.9819 11.6721 10.9894C10.919 11.9969 9.86027 12.7339 8.65398 13.0906C7.44769 13.4473 6.15842 13.4044 4.97846 12.9685C3.7985 12.5326 2.79107 11.7269 2.10641 10.6716C1.42176 9.61636 1.09657 8.36804 1.17933 7.11285C1.2621 5.85766 1.74839 4.66286 2.56568 3.70663C3.38298 2.7504 4.48748 2.08398 5.71446 1.80675C6.94145 1.52953 8.22518 1.65637 9.37419 2.16834"
            stroke="#656565"
            stroke-width="1.5"
            stroke-linecap="round"
            stroke-linejoin="round" />
          <path
            d="M12.8333 2.83337L7 8.67254L5.25 6.92254"
            stroke="#656565"
            stroke-width="1.5"
            stroke-linecap="round"
            stroke-linejoin="round" />
        </g>
        <defs>
          <clipPath id="clip0_255_2335">
            <rect
              width="14"
              height="14"
              fill="white"
              transform="translate(0 0.5)" />
          </clipPath>
        </defs>
      </svg>