<svg viewBox="-2.3 -2 18 18"  xmlns="http://www.w3.org/2000/svg">
<path fill-rule="evenodd" clip-rule="evenodd" d="M9.6664 4.08864H11.496C11.6237 4.08864 11.7461 4.13959 11.8364 4.23026C11.9267 4.32094 11.9774 4.44392 11.9774 4.57215V9.0591C11.9764 10.1028 11.5632 11.1035 10.8285 11.8416C10.0938 12.5798 9.09758 12.9952 8.0583 12.9968H6.97018C6.60314 13.0026 6.17529 12.9992 6.00725 12.9968H4.91914C3.87985 12.9952 2.8836 12.5798 2.1489 11.8416C1.41419 11.1035 1.00102 10.1028 1 9.0591V4.57215C1 4.44392 1.05073 4.32094 1.14102 4.23026C1.23131 4.13959 1.35377 4.08864 1.48147 4.08864H3.31104V1.48351C3.31104 1.35527 3.36176 1.23229 3.45206 1.14162C3.54235 1.05094 3.66481 1 3.7925 1C3.9202 1 4.04266 1.05094 4.13295 1.14162C4.22325 1.23229 4.27397 1.35527 4.27397 1.48351V4.08864H8.70346V1.48351C8.70346 1.35527 8.75419 1.23229 8.84448 1.14162C8.93477 1.05094 9.05723 1 9.18493 1C9.31262 1 9.43508 1.05094 9.52538 1.14162C9.61567 1.23229 9.6664 1.35527 9.6664 1.48351V4.08864ZM10.1482 11.1584C10.7024 10.6015 11.014 9.84648 11.0145 9.0591V5.05566H1.96293V9.0591C1.96344 9.84648 2.275 10.6015 2.82923 11.1584C3.38346 11.7154 4.13508 12.0287 4.91914 12.0298H8.0583C8.84235 12.0287 9.59397 11.7154 10.1482 11.1584Z"/>
<path fill-rule="evenodd" clip-rule="evenodd" d="M9.6664 4.08864H11.496C11.6237 4.08864 11.7461 4.13959 11.8364 4.23026C11.9267 4.32094 11.9774 4.44392 11.9774 4.57215V9.0591C11.9764 10.1028 11.5632 11.1035 10.8285 11.8416C10.0938 12.5798 9.09758 12.9952 8.0583 12.9968H6.97018C6.60314 13.0026 6.17529 12.9992 6.00725 12.9968H4.91914C3.87985 12.9952 2.8836 12.5798 2.1489 11.8416C1.41419 11.1035 1.00102 10.1028 1 9.0591V4.57215C1 4.44392 1.05073 4.32094 1.14102 4.23026C1.23131 4.13959 1.35377 4.08864 1.48147 4.08864H3.31104V1.48351C3.31104 1.35527 3.36176 1.23229 3.45206 1.14162C3.54235 1.05094 3.66481 1 3.7925 1C3.9202 1 4.04266 1.05094 4.13295 1.14162C4.22325 1.23229 4.27397 1.35527 4.27397 1.48351V4.08864H8.70346V1.48351C8.70346 1.35527 8.75419 1.23229 8.84448 1.14162C8.93477 1.05094 9.05723 1 9.18493 1C9.31262 1 9.43508 1.05094 9.52538 1.14162C9.61567 1.23229 9.6664 1.35527 9.6664 1.48351V4.08864ZM10.1482 11.1584C10.7024 10.6015 11.014 9.84648 11.0145 9.0591V5.05566H1.96293V9.0591C1.96344 9.84648 2.275 10.6015 2.82923 11.1584C3.38346 11.7154 4.13508 12.0287 4.91914 12.0298H8.0583C8.84235 12.0287 9.59397 11.7154 10.1482 11.1584Z"/>
</svg>
