<svg width="36" height="36" viewBox="0 0 36 36" fill="none" xmlns="http://www.w3.org/2000/svg">
<rect x="0.5" y="0.5" width="35" height="35" rx="17.5" fill="black"/>
<rect x="0.5" y="0.5" width="35" height="35" rx="17.5" stroke="black"/>
<path fill-rule="evenodd" clip-rule="evenodd" d="M22.6316 13.9552H25.2982C25.4844 13.9552 25.6629 14.0294 25.7945 14.1616C25.9261 14.2938 26 14.473 26 14.6599V21.1998C25.9985 22.721 25.3963 24.1795 24.3254 25.2555C23.2546 26.3314 21.8025 26.9369 20.2877 26.9391H18.7018C18.1668 26.9476 17.5432 26.9426 17.2982 26.9391H15.7123C14.1975 26.9369 12.7454 26.3314 11.6746 25.2555C10.6037 24.1795 10.0015 22.721 10 21.1998V14.6599C10 14.473 10.0739 14.2938 10.2055 14.1616C10.3371 14.0294 10.5156 13.9552 10.7018 13.9552H13.3684V10.1581C13.3684 9.97119 13.4424 9.79194 13.574 9.65978C13.7056 9.52762 13.8841 9.45337 14.0702 9.45337C14.2563 9.45337 14.4348 9.52762 14.5664 9.65978C14.698 9.79194 14.7719 9.97119 14.7719 10.1581V13.9552H21.2281V10.1581C21.2281 9.97119 21.302 9.79194 21.4336 9.65978C21.5652 9.52762 21.7437 9.45337 21.9298 9.45337C22.1159 9.45337 22.2944 9.52762 22.426 9.65978C22.5576 9.79194 22.6316 9.97119 22.6316 10.1581V13.9552ZM23.3338 24.2596C24.1416 23.4479 24.5957 22.3474 24.5965 21.1998V15.3646H11.4035V21.1998C11.4043 22.3474 11.8584 23.4479 12.6662 24.2596C13.474 25.0714 14.5695 25.5282 15.7123 25.5296H20.2877C21.4305 25.5282 22.526 25.0714 23.3338 24.2596Z" fill="#F9FAFB"/>
<path fill-rule="evenodd" clip-rule="evenodd" d="M22.6316 13.9552H25.2982C25.4844 13.9552 25.6629 14.0294 25.7945 14.1616C25.9261 14.2938 26 14.473 26 14.6599V21.1998C25.9985 22.721 25.3963 24.1795 24.3254 25.2555C23.2546 26.3314 21.8025 26.9369 20.2877 26.9391H18.7018C18.1668 26.9476 17.5432 26.9426 17.2982 26.9391H15.7123C14.1975 26.9369 12.7454 26.3314 11.6746 25.2555C10.6037 24.1795 10.0015 22.721 10 21.1998V14.6599C10 14.473 10.0739 14.2938 10.2055 14.1616C10.3371 14.0294 10.5156 13.9552 10.7018 13.9552H13.3684V10.1581C13.3684 9.97119 13.4424 9.79194 13.574 9.65978C13.7056 9.52762 13.8841 9.45337 14.0702 9.45337C14.2563 9.45337 14.4348 9.52762 14.5664 9.65978C14.698 9.79194 14.7719 9.97119 14.7719 10.1581V13.9552H21.2281V10.1581C21.2281 9.97119 21.302 9.79194 21.4336 9.65978C21.5652 9.52762 21.7437 9.45337 21.9298 9.45337C22.1159 9.45337 22.2944 9.52762 22.426 9.65978C22.5576 9.79194 22.6316 9.97119 22.6316 10.1581V13.9552ZM23.3338 24.2596C24.1416 23.4479 24.5957 22.3474 24.5965 21.1998V15.3646H11.4035V21.1998C11.4043 22.3474 11.8584 23.4479 12.6662 24.2596C13.474 25.0714 14.5695 25.5282 15.7123 25.5296H20.2877C21.4305 25.5282 22.526 25.0714 23.3338 24.2596Z" stroke="#F9FAFB" stroke-width="0.533333"/>
<path d="M15.8946 22.42H20.1052C20.2913 22.42 20.4698 22.3457 20.6014 22.2135C20.733 22.0814 20.8069 21.9021 20.8069 21.7152C20.8069 21.5283 20.733 21.3491 20.6014 21.2169C20.4698 21.0847 20.2913 21.0105 20.1052 21.0105H15.8946C15.7085 21.0105 15.53 21.0847 15.3984 21.2169C15.2668 21.3491 15.1929 21.5283 15.1929 21.7152C15.1929 21.9021 15.2668 22.0814 15.3984 22.2135C15.53 22.3457 15.7085 22.42 15.8946 22.42Z" fill="#F9FAFB" stroke="#F9FAFB" stroke-width="0.533333"/>
</svg>
