<svg viewBox="0 -0.5 25 25" fill="none" xmlns="http://www.w3.org/2000/svg">
<path d="M20.25 9C20.25 8.58579 19.9142 8.25 19.5 8.25C19.0858 8.25 18.75 8.58579 18.75 9L20.25 9ZM11.5 18.25C11.0858 18.25 10.75 18.5858 10.75 19C10.75 19.4142 11.0858 19.75 11.5 19.75V18.25ZM18.75 9C18.75 9.41421 19.0858 9.75 19.5 9.75C19.9142 9.75 20.25 9.41421 20.25 9L18.75 9ZM11.5 4.25C11.0858 4.25 10.75 4.58579 10.75 5C10.75 5.41421 11.0858 5.75 11.5 5.75V4.25ZM19.5 9.75C19.9142 9.75 20.25 9.41421 20.25 9C20.25 8.58579 19.9142 8.25 19.5 8.25V9.75ZM11.5 8.25C11.0858 8.25 10.75 8.58579 10.75 9C10.75 9.41421 11.0858 9.75 11.5 9.75V8.25ZM6.25 12C6.25 11.5858 5.91421 11.25 5.5 11.25C5.08579 11.25 4.75 11.5858 4.75 12H6.25ZM11.5 19.75C11.9142 19.75 12.25 19.4142 12.25 19C12.25 18.5858 11.9142 18.25 11.5 18.25V19.75ZM4.75 12C4.75 12.4142 5.08579 12.75 5.5 12.75C5.91421 12.75 6.25 12.4142 6.25 12H4.75ZM11.5 5.75C11.9142 5.75 12.25 5.41421 12.25 5C12.25 4.58579 11.9142 4.25 11.5 4.25V5.75ZM5.5 11.25C5.08579 11.25 4.75 11.5858 4.75 12C4.75 12.4142 5.08579 12.75 5.5 12.75L5.5 11.25ZM11.5 12.75C11.9142 12.75 12.25 12.4142 12.25 12C12.25 11.5858 11.9142 11.25 11.5 11.25V12.75ZM12.25 12C12.25 11.5858 11.9142 11.25 11.5 11.25C11.0858 11.25 10.75 11.5858 10.75 12H12.25ZM10.75 19C10.75 19.4142 11.0858 19.75 11.5 19.75C11.9142 19.75 12.25 19.4142 12.25 19H10.75ZM10.75 12C10.75 12.4142 11.0858 12.75 11.5 12.75C11.9142 12.75 12.25 12.4142 12.25 12H10.75ZM12.25 9C12.25 8.58579 11.9142 8.25 11.5 8.25C11.0858 8.25 10.75 8.58579 10.75 9H12.25ZM12.25 5C12.25 4.58579 11.9142 4.25 11.5 4.25C11.0858 4.25 10.75 4.58579 10.75 5H12.25ZM10.75 9C10.75 9.41421 11.0858 9.75 11.5 9.75C11.9142 9.75 12.25 9.41421 12.25 9H10.75ZM18.75 9V15H20.25V9L18.75 9ZM18.75 15C18.75 16.7949 17.2949 18.25 15.5 18.25V19.75C18.1234 19.75 20.25 17.6234 20.25 15H18.75ZM15.5 18.25H11.5V19.75H15.5V18.25ZM20.25 9C20.25 6.37665 18.1234 4.25 15.5 4.25L15.5 5.75C17.2949 5.75 18.75 7.20507 18.75 9L20.25 9ZM15.5 4.25H11.5V5.75H15.5L15.5 4.25ZM19.5 8.25H11.5V9.75H19.5V8.25ZM4.75 12V15H6.25V12H4.75ZM4.75 15C4.75 17.6234 6.87665 19.75 9.5 19.75V18.25C7.70507 18.25 6.25 16.7949 6.25 15H4.75ZM9.5 19.75H11.5V18.25H9.5V19.75ZM6.25 12L6.25 9H4.75L4.75 12H6.25ZM6.25 9C6.25 7.20507 7.70507 5.75 9.5 5.75V4.25C6.87665 4.25 4.75 6.37665 4.75 9H6.25ZM9.5 5.75H11.5V4.25H9.5V5.75ZM5.5 12.75H11.5V11.25H5.5L5.5 12.75ZM10.75 12V19H12.25V12H10.75ZM12.25 12V9H10.75V12H12.25ZM10.75 5V9H12.25V5H10.75Z" fill="currentColor"/>
</svg>
