 <svg
            class="mb-2"
            width="24"
            height="33"
            viewBox="0 0 24 33"
            fill="none"
            xmlns="http://www.w3.org/2000/svg">
            <path
              d="M22.0582 6.464H18.2132V1.0119C18.2132 0.743526 18.1066 0.486145 17.9169 0.296378C17.7271 0.10661 17.4697 0 17.2014 0C16.933 0 16.6757 0.10661 16.4859 0.296378C16.2961 0.486145 16.1895 0.743526 16.1895 1.0119V6.464H6.88059V1.0119C6.88059 0.743526 6.77398 0.486145 6.58423 0.296378C6.39447 0.10661 6.1371 0 5.86875 0C5.60039 0 5.34302 0.10661 5.15326 0.296378C4.96351 0.486145 4.8569 0.743526 4.8569 1.0119V6.464H1.0119C0.743546 6.464 0.48618 6.57061 0.296423 6.76038C0.106665 6.95015 6.10352e-05 7.20753 6.10352e-05 7.4759V16.8663C0.00220209 19.0506 0.870521 21.1448 2.41457 22.6897C3.95861 24.2346 6.05231 25.104 8.23645 25.1072H10.5232V31.9881C10.5232 32.2565 10.6298 32.5139 10.8196 32.7036C11.0093 32.8934 11.2667 33 11.5351 33C11.8034 33 12.0608 32.8934 12.2505 32.7036C12.4403 32.5139 12.5469 32.2565 12.5469 31.9881V25.1072H14.8337C17.0178 25.104 19.1115 24.2346 20.6556 22.6897C22.1996 21.1448 23.0679 19.0506 23.0701 16.8663V7.4759C23.0701 7.20753 22.9635 6.95015 22.7737 6.76038C22.5839 6.57061 22.3266 6.464 22.0582 6.464ZM21.0464 16.8663C21.0453 18.5142 20.3905 20.0943 19.2258 21.2598C18.061 22.4254 16.4814 23.0813 14.8337 23.0834H8.23645C6.5887 23.0813 5.0091 22.4254 3.84434 21.2598C2.67958 20.0943 2.02482 18.5142 2.02375 16.8663V8.4878H21.0464V16.8663Z"
              fill="black" />
            <path
              d="M21.0464 16.8663C21.0453 18.5142 20.3905 20.0943 19.2258 21.2598C18.061 22.4254 16.4814 23.0813 14.8337 23.0834H8.23645C6.5887 23.0813 5.0091 22.4254 3.84434 21.2598C2.67958 20.0943 2.02482 18.5142 2.02375 16.8663V8.4878H21.0464V16.8663Z"
              fill="#FFFE00" />
            <path
              d="M8.49945 18.6189H14.5705C14.8389 18.6189 15.0962 18.5123 15.286 18.3225C15.4757 18.1327 15.5823 17.8754 15.5823 17.607C15.5823 17.3386 15.4757 17.0812 15.286 16.8915C15.0962 16.7017 14.8389 16.5951 14.5705 16.5951H8.49945C8.23109 16.5951 7.97373 16.7017 7.78397 16.8915C7.59421 17.0812 7.48761 17.3386 7.48761 17.607C7.48761 17.8754 7.59421 18.1327 7.78397 18.3225C7.97373 18.5123 8.23109 18.6189 8.49945 18.6189Z"
              fill="black" />
          </svg>