 <svg
            class="mb-2 hover:lift"
            width="39"
            height="34"
            viewBox="0 0 39 34"
            fill="none"
            xmlns="http://www.w3.org/2000/svg">
            <path
              d="M28.7778 24.3417C28.8295 24.2901 28.8995 24.261 28.9726 24.261H29.6831C30.449 24.261 31.1897 23.987 31.7711 23.4887L28.7778 24.3417ZM28.7778 24.3417C28.7261 24.3933 28.6971 24.4633 28.6971 24.5364M28.7778 24.3417L28.6971 24.5364M32.1297 23.9079L35.1295 21.3383C35.3895 21.1161 35.7204 20.994 36.0625 20.9939M32.1297 23.9079L36.0626 21.2819C36.2999 21.2819 36.5313 21.3556 36.7249 21.4928C36.9185 21.6299 37.0646 21.8238 37.1432 22.0475C37.2217 22.2711 37.2288 22.5137 37.1634 22.7416C37.0981 22.9694 36.9635 23.1715 36.7783 23.3197L29.7251 28.9618L29.7245 28.9623C28.0146 30.3381 26.0138 31.307 23.8738 31.7958C21.7337 32.2846 19.5103 32.2804 17.3721 31.7835L17.3714 31.7833L8.11617 29.6591C8.04435 29.6416 7.96976 29.6386 7.89674 29.6502C7.8227 29.6619 7.75178 29.6885 7.68819 29.7282C7.62462 29.768 7.5697 29.8202 7.52673 29.8816C7.48436 29.9422 7.45445 30.0106 7.43875 30.0828C7.42245 30.1541 7.42022 30.2279 7.43219 30.3L7.71606 30.2529L7.4322 30.3C7.44435 30.3732 7.47088 30.4433 7.51026 30.5061C7.54963 30.569 7.60106 30.6234 7.66158 30.6663L7.66159 30.6663C7.72191 30.7091 7.79008 30.7395 7.86217 30.7559C7.86239 30.7559 7.86262 30.756 7.86285 30.756L17.119 32.8849C18.2806 33.152 19.4687 33.2873 20.6607 33.2879H20.6611C24.2153 33.2855 27.662 32.0692 30.4297 29.8407C30.4298 29.8406 30.43 29.8405 30.4301 29.8404L37.4823 24.199C37.8505 23.9053 38.1182 23.5044 38.2483 23.0518C38.3784 22.5992 38.3645 22.1174 38.2085 21.673C38.0524 21.2287 37.762 20.8439 37.3775 20.5719L37.2112 20.8069L37.3775 20.5719C36.993 20.2999 36.5335 20.1541 36.0625 20.1547M32.1297 23.9079C31.4481 24.4911 30.5804 24.8116 29.6831 24.8117M32.1297 23.9079L29.6831 24.8117M36.0625 20.9939L36.0625 21.2819C35.7889 21.2819 35.5244 21.3796 35.3165 21.5572L32.317 24.1266L32.3168 24.1267C31.5831 24.7545 30.649 25.0995 29.6831 25.0996H29.6831H28.9726C28.8232 25.0996 28.68 25.0403 28.5743 24.9347C28.4686 24.8291 28.4092 24.6858 28.4092 24.5364C28.4092 24.3869 28.4686 24.2436 28.5743 24.138C28.68 24.0324 28.8232 23.9731 28.9726 23.9731H29.6831C30.3803 23.9731 31.0545 23.7237 31.5838 23.2701L31.5838 23.27L34.5836 20.7004L34.5838 20.7003C34.9957 20.3478 35.5202 20.1543 36.0625 20.1547M36.0625 20.9939C36.3595 20.994 36.6491 21.0862 36.8913 21.2578C37.1336 21.4295 37.3165 21.6721 37.4148 21.9521C37.5131 22.2321 37.522 22.5357 37.4402 22.8209C37.3584 23.1062 37.19 23.359 36.9581 23.5445L36.0625 20.9939ZM36.0625 20.1547C36.0624 20.1547 36.0623 20.1547 36.0622 20.1547L36.0625 20.4426L36.0628 20.1547C36.0627 20.1547 36.0626 20.1547 36.0625 20.1547ZM29.6831 24.8117H28.9726M29.6831 24.8117H28.9726M28.9726 24.8117C28.8995 24.8117 28.8295 24.7827 28.7778 24.731M28.9726 24.8117L28.7778 24.731M28.7778 24.731C28.7261 24.6794 28.6971 24.6094 28.6971 24.5364M28.7778 24.731L28.6971 24.5364"
              fill="black"
              stroke="black"
              stroke-width="0.575829" />
            <path
              d="M8.21503 22.0451L8.21484 22.0452C8.07865 22.1062 7.92381 22.1106 7.78437 22.0575C7.64492 22.0044 7.53223 21.898 7.47116 21.7618C7.41009 21.6256 7.40567 21.4707 7.45888 21.3312C7.51204 21.1919 7.61838 21.0793 7.75444 21.0183C7.75447 21.0183 7.7545 21.0183 7.75453 21.0183C7.75459 21.0183 7.75466 21.0182 7.75472 21.0182L10.1103 19.9605C10.1104 19.9605 10.1104 19.9605 10.1105 19.9604C11.2772 19.435 12.5686 19.249 13.8363 19.4239C13.8363 19.4239 13.8364 19.4239 13.8364 19.4239L30.0317 21.6447C30.0318 21.6447 30.0319 21.6447 30.032 21.6447L30.032 21.6448L29.9929 21.93L8.21503 22.0451ZM8.21503 22.0451L10.5718 20.988C10.5719 20.988 10.5719 20.9879 10.572 20.9879C11.5471 20.5512 12.6251 20.396 13.6839 20.5399C13.684 20.5399 13.684 20.5399 13.6841 20.5399L29.8786 22.7606C29.8787 22.7606 29.8789 22.7606 29.879 22.7607C30.0321 22.7823 30.1713 22.8611 30.2686 22.9811L30.4922 22.7997L30.2686 22.9811C30.3661 23.1012 30.4143 23.2537 30.4037 23.4078C30.3932 23.562 30.3246 23.7065 30.2117 23.8122C30.0988 23.9178 29.9501 23.9769 29.7955 23.9775H17.4228C17.2735 23.9775 17.1302 24.0368 17.0245 24.1424C16.9188 24.248 16.8594 24.3913 16.8594 24.5408C16.8594 24.6902 16.9188 24.8335 17.0245 24.9391C17.1302 25.0447 17.2735 25.104 17.4228 25.104H29.7957L8.21503 22.0451Z"
              fill="black"
              stroke="black"
              stroke-width="0.575829" />
            <path
              d="M32.0888 11.7475C32.0881 12.8953 31.6339 13.9958 30.826 14.8076C30.0181 15.6195 28.9225 16.0763 27.7796 16.0778H23.2038C22.0609 16.0763 20.9653 15.6195 20.1574 14.8076C19.3495 13.9958 18.8953 12.8953 18.8946 11.7475V5.91182H32.0888V11.7475Z"
              fill="#FFFE00" />
            <path
              fill-rule="evenodd"
              clip-rule="evenodd"
              d="M30.1237 4.50223H32.7906C32.9767 4.50223 33.1553 4.57648 33.2869 4.70866C33.4185 4.84083 33.4924 5.0201 33.4924 5.20702V11.7475C33.491 13.2689 32.8887 14.7275 31.8177 15.8036C30.7468 16.8796 29.2946 17.4851 27.7796 17.4874H26.1935C25.6585 17.4959 25.0348 17.4909 24.7899 17.4874H23.2038C21.6888 17.4851 20.2366 16.8796 19.1657 15.8036C18.0947 14.7275 17.4924 13.2689 17.491 11.7475V5.20702C17.491 5.0201 17.5649 4.84083 17.6965 4.70866C17.8281 4.57648 18.0066 4.50223 18.1928 4.50223H20.8597V0.704794C20.8597 0.517871 20.9336 0.338604 21.0652 0.20643C21.1969 0.0742549 21.3754 0 21.5615 0C21.7476 0 21.9261 0.0742549 22.0578 0.20643C22.1894 0.338604 22.2633 0.517871 22.2633 0.704794V4.50223H28.7201V0.704794C28.7201 0.517871 28.794 0.338604 28.9256 0.20643C29.0572 0.0742549 29.2357 0 29.4219 0C29.608 0 29.7865 0.0742549 29.9181 0.20643C30.0498 0.338604 30.1237 0.517871 30.1237 0.704794V4.50223ZM30.826 14.8076C31.6339 13.9958 32.0881 12.8953 32.0888 11.7475V5.91182H18.8946V11.7475C18.8953 12.8953 19.3495 13.9958 20.1574 14.8076C20.9653 15.6195 22.0609 16.0763 23.2038 16.0778H27.7796C28.9225 16.0763 30.0181 15.6195 30.826 14.8076Z"
              fill="black" />
            <path
              d="M23.3863 12.9682H27.5972C27.7833 12.9682 27.9618 12.894 28.0934 12.7618C28.2251 12.6296 28.299 12.4503 28.299 12.2634C28.299 12.0765 28.2251 11.8972 28.0934 11.7651C27.9618 11.6329 27.7833 11.5586 27.5972 11.5586H23.3863C23.2001 11.5586 23.0216 11.6329 22.89 11.7651C22.7584 11.8972 22.6844 12.0765 22.6844 12.2634C22.6844 12.4503 22.7584 12.6296 22.89 12.7618C23.0216 12.894 23.2001 12.9682 23.3863 12.9682Z"
              fill="black" />
            <path
              d="M5.49563 32.9772H3.41127C2.67756 32.9765 1.97417 32.6847 1.45563 32.1659C0.937099 31.6472 0.645835 30.944 0.645836 30.2108V21.5321C0.646614 20.7994 0.938221 20.097 1.45667 19.5789C1.97512 19.0608 2.67807 18.7694 3.41127 18.7686H5.49563C6.22877 18.7694 6.93164 19.0608 7.44997 19.5789C7.96831 20.097 8.25975 20.7995 8.26033 21.5321V30.2108C8.26034 30.9439 7.96917 31.647 7.4508 32.1657C6.93242 32.6844 6.22922 32.9763 5.49563 32.9772ZM3.41127 19.3215C2.82448 19.3218 2.26179 19.5548 1.84666 19.9692C1.43152 20.3837 1.19784 20.9457 1.19687 21.5321V30.2108C1.19745 30.7975 1.43094 31.36 1.84609 31.7749C2.26125 32.1898 2.82415 32.4231 3.41127 32.4237H5.49563C6.08268 32.4231 6.64551 32.1897 7.06055 31.7749C7.47559 31.36 7.70892 30.7975 7.70931 30.2108V21.5321C7.70833 20.9458 7.47475 20.3839 7.05977 19.9695C6.6448 19.5551 6.0823 19.322 5.49563 19.3215H3.41127Z"
              fill="black" />
            <path
              d="M3.41127 19.3215C2.82448 19.3218 2.26179 19.5548 1.84666 19.9692C1.43152 20.3837 1.19784 20.9457 1.19687 21.5321V30.2108C1.19745 30.7975 1.43094 31.36 1.84609 31.7749C2.26125 32.1898 2.82415 32.4231 3.41127 32.4237H5.49563C6.08268 32.4231 6.64551 32.1897 7.06055 31.7749C7.47559 31.36 7.70892 30.7975 7.70931 30.2108V21.5321C7.70833 20.9458 7.47475 20.3839 7.05977 19.9695C6.6448 19.5551 6.0823 19.322 5.49563 19.3215H3.41127Z"
              fill="#FFFE00" />
            <path
              d="M5.49563 33.2651H5.49602C6.30582 33.2641 7.08214 32.9419 7.65444 32.3692C8.22676 31.7965 8.54825 31.0203 8.54825 30.2108V21.5321V21.5318C8.54761 20.7229 8.22579 19.9473 7.65351 19.3753C7.08124 18.8033 6.30527 18.4816 5.49594 18.4807H5.49563L3.41127 18.4807L3.41097 18.4807C2.60158 18.4816 1.82555 18.8032 1.25316 19.3752C0.680765 19.9472 0.358781 20.7228 0.357921 21.5318V21.5321V30.2108C0.357921 31.0204 0.679527 31.7968 1.25201 32.3695C1.82449 32.9422 2.60102 33.2643 3.41097 33.2651H3.41127H5.49563Z"
              stroke="black"
              stroke-width="0.575829" />
          </svg>