<svg width="70" height="61" viewBox="0 0 70 61" fill="none" xmlns="http://www.w3.org/2000/svg">
<path d="M69.1374 29.5325L52.0907 0H17.3666L0 30.0625L17.3666 60.125H52.0907L69.1465 30.6016L69.4573 30.0625L69.1374 29.5325ZM16.9096 55.0537L3.09857 31.1316H16.9096V55.0537ZM16.9096 28.9843H3.09857L16.9096 5.08047V28.9843ZM49.6045 2.14732L42.6853 14.0901L21.9825 2.14732H49.6045ZM19.0576 2.93315L41.6067 15.945L34.0477 28.9843H19.0576V2.93315ZM36.5247 28.9843L43.4622 17.0141L64.1925 28.9843H36.5247ZM64.2199 31.1316L43.4713 43.1109L36.5247 31.1316H64.2199ZM19.0576 31.1316H34.0477L41.6159 44.18L19.0576 57.201V31.1316ZM42.6853 46.0349L49.6136 57.9777H21.9825L42.6853 46.0349ZM51.4691 56.9086L44.5408 44.9567L65.2801 32.9865L51.4691 56.9086ZM44.5408 15.1592L51.4691 3.20728L65.2801 27.1385L44.5408 15.1592Z" fill="black"/>
</svg>
