<svg
            width="47"
            height="40"
            viewBox="0 0 47 40"
            fill="none"
            xmlns="http://www.w3.org/2000/svg">
            <path
              d="M45.9958 19.6474L34.6549 0H11.5537L0 20L11.5537 40H34.6549L46.0018 20.3587L46.2086 20L45.9958 19.6474ZM11.2496 36.6261L2.06142 20.7112H11.2496V36.6261ZM11.2496 19.2827H2.06142L11.2496 3.37994V19.2827ZM33.0009 1.42857L28.3977 9.37386L14.6245 1.42857H33.0009ZM12.6786 1.95137L27.6802 10.6079L22.6513 19.2827H12.6786V1.95137ZM24.2992 19.2827L28.9146 11.3191L42.706 19.2827H24.2992ZM42.7242 20.7112L28.9207 28.6808L24.2992 20.7112H42.7242ZM12.6786 20.7112H22.6513L27.6862 29.3921L12.6786 38.0547V20.7112ZM28.3977 30.6261L33.007 38.5714H14.6245L28.3977 30.6261ZM34.2414 37.8602L29.6321 29.9088L43.4296 21.9453L34.2414 37.8602ZM29.6321 10.0851L34.2414 2.13374L43.4296 18.0547L29.6321 10.0851Z"
              fill="black" />
          </svg>