
<svg width="185" height="61" viewBox="0 0 185 61" fill="none" xmlns="http://www.w3.org/2000/svg">
<g clip-path="url(#clip0_126_244)">
<path d="M69.1374 29.5325L52.0907 0H17.3666L0 30.0625L17.3666 60.125H52.0907L69.1465 30.6016L69.4573 30.0625L69.1374 29.5325ZM16.9096 55.0537L3.09857 31.1316H16.9096V55.0537ZM16.9096 28.9843H3.09857L16.9096 5.08047V28.9843ZM49.6045 2.14732L42.6853 14.0901L21.9825 2.14732H49.6045ZM19.0576 2.93315L41.6067 15.945L34.0477 28.9843H19.0576V2.93315ZM36.5247 28.9843L43.4622 17.0141L64.1925 28.9843H36.5247ZM64.2199 31.1316L43.4713 43.1109L36.5247 31.1316H64.2199ZM19.0576 31.1316H34.0477L41.6159 44.18L19.0576 57.201V31.1316ZM42.6853 46.0349L49.6136 57.9777H21.9825L42.6853 46.0349ZM51.4691 56.9086L44.5408 44.9567L65.2801 32.9865L51.4691 56.9086ZM44.5408 15.1592L51.4691 3.20728L65.2801 27.1385L44.5408 15.1592Z" fill="#FFFE00"/>
<path d="M89.1364 14.9033L84.6119 2.70471V14.9033H82.7564V0.0913696H85.462L89.959 12.2626L94.4835 0.0913696H97.1067V14.9033H95.2695V2.70471L90.7268 14.9033H89.1364Z" fill="#FFFE00"/>
<path d="M104.565 15.1318C101.613 15.1318 99.5472 12.8656 99.5472 9.52131C99.5472 6.17697 101.613 3.91086 104.565 3.91086C107.518 3.91086 109.583 6.17697 109.583 9.52131C109.583 12.8565 107.518 15.1318 104.565 15.1318ZM104.565 13.5418C106.466 13.5418 107.7 11.9702 107.7 9.52131C107.7 7.04503 106.466 5.47338 104.565 5.47338C102.664 5.47338 101.43 7.04503 101.43 9.52131C101.43 11.9702 102.664 13.5418 104.565 13.5418Z" fill="#FFFE00"/>
<path d="M113.788 13.3317V14.9033H111.932V0.0913696H113.788V5.68354C114.428 4.63273 115.625 3.91086 117.133 3.91086C120.122 3.91086 121.84 6.4511 121.84 9.52131C121.84 12.5732 120.131 15.1318 117.133 15.1318C115.625 15.1318 114.428 14.4099 113.788 13.3317ZM113.751 9.90508C113.751 12.3814 115.278 13.4961 116.804 13.4961C118.824 13.4961 119.967 11.824 119.967 9.51217C119.967 7.1821 118.833 5.5282 116.804 5.5282C115.278 5.5282 113.751 6.62471 113.751 9.13753V9.90508Z" fill="#FFFE00"/>
<path d="M124.107 0.0913696H126.127V2.23869H124.107V0.0913696ZM126.045 14.9033H124.189V4.11189H126.045V14.9033Z" fill="#FFFE00"/>
<path d="M130.999 14.9033H129.144V0.0913696H130.999V14.9033Z" fill="#FFFE00"/>
<path d="M134.006 0.0913696H136.026V2.23869H134.006V0.0913696ZM135.953 14.9033H134.098V4.11189H135.953V14.9033Z" fill="#FFFE00"/>
<path d="M139.335 5.70181H137.662V4.11187H139.335V0.950287H141.172V4.11187H143.631V5.70181H141.172V12.0341C141.172 13.1672 141.73 13.3773 142.68 13.3773C143.11 13.3773 143.421 13.3591 143.859 13.2494V14.8393C143.384 14.9399 142.845 15.0038 142.232 15.0038C140.395 15.0038 139.344 14.3825 139.344 12.3174V5.70181H139.335Z" fill="#FFFE00"/>
<path d="M146.684 18.7411C146.227 18.7411 145.998 18.7228 145.669 18.6588V17.0506C146.017 17.1329 146.245 17.1511 146.556 17.1511C147.36 17.1511 147.79 16.8587 148.229 15.7896L148.74 14.5104L144.737 4.11188H146.693L149.728 12.3631L152.716 4.11188H154.654L150.011 16.0821C149.408 17.7085 148.558 18.7411 146.684 18.7411Z" fill="#FFFE00"/>
<path d="M82.7564 22.725H87.4637C91.9607 22.725 94.8125 25.6125 94.8125 30.1356C94.8125 34.6587 91.9607 37.5461 87.4637 37.5461H82.7564V22.725ZM87.4637 35.8283C90.8273 35.8283 92.8748 33.5804 92.8748 30.1356C92.8748 26.6725 90.8273 24.4429 87.4454 24.4429H84.7033V35.8374H87.4637V35.8283Z" fill="#FFFE00"/>
<path d="M96.2932 34.6313C96.2932 32.4839 97.9659 31.5976 100.379 31.1042L103.002 30.5651V30.1082C103.002 28.8746 102.317 28.171 100.873 28.171C99.5106 28.171 98.7063 28.8106 98.3772 30.0077L96.6223 29.5508C97.1341 27.7964 98.7245 26.5354 100.936 26.5354C103.35 26.5354 104.839 27.7141 104.839 30.0259V35.2892C104.839 35.9927 105.269 36.2212 105.991 36.0567V37.5461C104.337 37.7563 103.386 37.3634 103.167 36.3308C102.509 37.1806 101.311 37.738 99.8397 37.738C97.8836 37.7197 96.2932 36.5684 96.2932 34.6313ZM103.002 32.0088L100.9 32.4657C99.2455 32.7946 98.1304 33.2515 98.1304 34.549C98.1304 35.5998 98.8982 36.2212 100.068 36.2212C101.659 36.2212 103.002 35.2526 103.002 33.8637V32.0088Z" fill="#FFFE00"/>
<path d="M108.276 28.3355H106.603V26.7456H108.276V23.584H110.113V26.7456H112.572V28.3355H110.113V34.6678C110.113 35.8009 110.671 36.011 111.622 36.011C112.051 36.011 112.362 35.9927 112.801 35.8922V37.4822C112.325 37.5827 111.786 37.6466 111.174 37.6466C109.336 37.6466 108.285 37.0253 108.285 34.9602V28.3355H108.276Z" fill="#FFFE00"/>
<path d="M114.163 34.6313C114.163 32.4839 115.835 31.5976 118.248 31.1042L120.872 30.5651V30.1082C120.872 28.8746 120.186 28.171 118.742 28.171C117.38 28.171 116.576 28.8106 116.247 30.0077L114.492 29.5508C115.003 27.7964 116.594 26.5354 118.806 26.5354C121.219 26.5354 122.709 27.7141 122.709 30.0259V35.2892C122.709 35.9927 123.138 36.2212 123.86 36.0567V37.5461C122.206 37.7563 121.255 37.3634 121.036 36.3308C120.378 37.1806 119.181 37.738 117.709 37.738C115.753 37.7197 114.163 36.5684 114.163 34.6313ZM120.872 32.0088L118.769 32.4657C117.115 32.7946 116 33.2515 116 34.549C116 35.5998 116.768 36.2212 117.937 36.2212C119.528 36.2212 120.872 35.2526 120.872 33.8637V32.0088Z" fill="#FFFE00"/>
<path d="M130.295 33.2423C131.228 35.015 132.9 36.0476 134.82 36.0476C136.739 36.0476 138.229 35.0973 138.229 33.4068C138.229 31.6159 136.52 31.3052 134.262 30.7661C131.931 30.2087 129.619 29.569 129.619 26.7821C129.619 24.1779 131.867 22.4875 134.673 22.4875C137.251 22.4875 139.116 23.721 140.002 25.3932L138.494 26.5902C137.726 25.1648 136.556 24.1962 134.637 24.1962C132.845 24.1962 131.538 25.183 131.538 26.6085C131.538 28.1801 132.918 28.5091 135.002 29.0025C137.461 29.5782 140.167 30.099 140.167 33.2332C140.167 36.0019 137.708 37.7563 134.783 37.7563C132.224 37.7563 129.765 36.477 128.76 34.4759L130.295 33.2423Z" fill="#FFFE00"/>
<path d="M144.179 35.9653V41.2468H142.324V26.7456H144.179V28.3172C144.819 27.2664 146.017 26.5445 147.525 26.5445C150.514 26.5445 152.232 29.0848 152.232 32.155C152.232 35.2069 150.523 37.7654 147.525 37.7654C146.017 37.7654 144.819 37.0436 144.179 35.9653ZM144.143 32.5479C144.143 35.0242 145.669 36.1389 147.196 36.1389C149.216 36.1389 150.358 34.4668 150.358 32.155C150.358 29.8249 149.225 28.171 147.196 28.171C145.669 28.171 144.143 29.2675 144.143 31.7803V32.5479Z" fill="#FFFE00"/>
<path d="M153.74 34.6313C153.74 32.4839 155.413 31.5976 157.826 31.1042L160.449 30.5651V30.1082C160.449 28.8746 159.764 28.171 158.319 28.171C156.957 28.171 156.153 28.8106 155.824 30.0077L154.069 29.5508C154.581 27.7964 156.171 26.5354 158.383 26.5354C160.796 26.5354 162.286 27.7141 162.286 30.0259V35.2892C162.286 35.9927 162.716 36.2212 163.438 36.0567V37.5461C161.784 37.7563 160.833 37.3634 160.614 36.3308C159.956 37.1806 158.758 37.738 157.287 37.738C155.331 37.7197 153.74 36.5684 153.74 34.6313ZM160.449 32.0088L158.347 32.4657C156.692 32.7946 155.577 33.2515 155.577 34.549C155.577 35.5998 156.345 36.2212 157.515 36.2212C159.105 36.2212 160.449 35.2526 160.449 33.8637V32.0088Z" fill="#FFFE00"/>
<path d="M169.79 36.139C171.28 36.139 172.167 35.1887 172.478 33.8454L174.132 34.613C173.62 36.4039 172.048 37.7746 169.8 37.7746C166.783 37.7746 164.699 35.4811 164.699 32.1641C164.699 28.8198 166.783 26.5537 169.8 26.5537C172.048 26.5537 173.575 27.8512 174.096 29.6513L172.487 30.4554C172.176 29.1305 171.29 28.1619 169.8 28.1619C167.88 28.1619 166.555 29.6879 166.555 32.1641C166.555 34.6039 167.871 36.139 169.79 36.139Z" fill="#FFFE00"/>
<path d="M175.421 32.155C175.421 28.9386 177.468 26.5445 180.393 26.5445C183.41 26.5445 185 28.838 185 31.826V32.4474H177.194C177.295 34.7135 178.602 36.1572 180.476 36.1572C181.92 36.1572 182.953 35.3714 183.282 34.0921L184.909 34.6678C184.251 36.5867 182.614 37.7654 180.476 37.7654C177.487 37.7654 175.421 35.4719 175.421 32.155ZM177.304 31.0128H183.126C183.081 29.4868 182.258 28.1253 180.384 28.1253C178.812 28.1253 177.633 29.1853 177.304 31.0128Z" fill="#FFFE00"/>
</g>
<defs>
<clipPath id="clip0_126_244">
<rect width="185" height="60.125" fill="white"/>
</clipPath>
</defs>
</svg>
