<svg width="39" height="34" viewBox="0 0 39 34" fill="none" xmlns="http://www.w3.org/2000/svg">
<mask id="path-1-outside-1_704_436" maskUnits="userSpaceOnUse" x="6.7124" y="19.4424" width="32" height="15" fill="black">
<rect fill="white" x="6.7124" y="19.4424" width="32" height="15"/>
<path d="M20.6608 32.9998C19.4904 32.9992 18.3239 32.8664 17.1834 32.6041L7.92609 30.475C7.8908 30.467 7.85744 30.4521 7.82793 30.4312C7.79841 30.4103 7.77334 30.3838 7.75414 30.3531C7.73495 30.3225 7.72202 30.2883 7.7161 30.2527C7.71018 30.217 7.71138 30.1805 7.71964 30.1453C7.72715 30.1098 7.74174 30.0762 7.76255 30.0464C7.78335 30.0167 7.80995 29.9914 7.84074 29.9722C7.87152 29.9529 7.90588 29.9401 7.94175 29.9344C7.97763 29.9287 8.01428 29.9303 8.04952 29.939L17.3068 32.0637C19.4876 32.5705 21.7551 32.5748 23.9377 32.0763C26.1204 31.5778 28.1609 30.5896 29.9048 29.1865L36.958 23.5443C37.1898 23.3588 37.3583 23.106 37.4401 22.8208C37.5219 22.5355 37.513 22.2319 37.4147 21.9519C37.3164 21.6719 37.1335 21.4293 36.8912 21.2577C36.649 21.086 36.3594 20.9938 36.0624 20.9938C35.7203 20.9938 35.3894 21.1159 35.1293 21.3381L32.1295 23.9077C31.4479 24.4909 30.5802 24.8114 29.683 24.8115H28.9725C28.8994 24.8115 28.8293 24.7825 28.7777 24.7309C28.726 24.6792 28.697 24.6092 28.697 24.5362C28.697 24.4632 28.726 24.3931 28.7777 24.3415C28.8293 24.2899 28.8994 24.2609 28.9725 24.2609H29.683C30.4489 24.2608 31.1896 23.9868 31.771 23.4885L34.7708 20.9189C35.1306 20.611 35.5888 20.442 36.0624 20.4424C36.4738 20.4419 36.8753 20.5692 37.2111 20.8068C37.5469 21.0443 37.8005 21.3803 37.9367 21.7683C38.0729 22.1562 38.0851 22.5769 37.9715 22.972C37.8579 23.3672 37.6241 23.7173 37.3026 23.9738L30.2494 29.616C27.5328 31.8035 24.1496 32.9974 20.6608 32.9998Z"/>
</mask>
<path d="M20.6608 32.9998C19.4904 32.9992 18.3239 32.8664 17.1834 32.6041L7.92609 30.475C7.8908 30.467 7.85744 30.4521 7.82793 30.4312C7.79841 30.4103 7.77334 30.3838 7.75414 30.3531C7.73495 30.3225 7.72202 30.2883 7.7161 30.2527C7.71018 30.217 7.71138 30.1805 7.71964 30.1453C7.72715 30.1098 7.74174 30.0762 7.76255 30.0464C7.78335 30.0167 7.80995 29.9914 7.84074 29.9722C7.87152 29.9529 7.90588 29.9401 7.94175 29.9344C7.97763 29.9287 8.01428 29.9303 8.04952 29.939L17.3068 32.0637C19.4876 32.5705 21.7551 32.5748 23.9377 32.0763C26.1204 31.5778 28.1609 30.5896 29.9048 29.1865L36.958 23.5443C37.1898 23.3588 37.3583 23.106 37.4401 22.8208C37.5219 22.5355 37.513 22.2319 37.4147 21.9519C37.3164 21.6719 37.1335 21.4293 36.8912 21.2577C36.649 21.086 36.3594 20.9938 36.0624 20.9938C35.7203 20.9938 35.3894 21.1159 35.1293 21.3381L32.1295 23.9077C31.4479 24.4909 30.5802 24.8114 29.683 24.8115H28.9725C28.8994 24.8115 28.8293 24.7825 28.7777 24.7309C28.726 24.6792 28.697 24.6092 28.697 24.5362C28.697 24.4632 28.726 24.3931 28.7777 24.3415C28.8293 24.2899 28.8994 24.2609 28.9725 24.2609H29.683C30.4489 24.2608 31.1896 23.9868 31.771 23.4885L34.7708 20.9189C35.1306 20.611 35.5888 20.442 36.0624 20.4424C36.4738 20.4419 36.8753 20.5692 37.2111 20.8068C37.5469 21.0443 37.8005 21.3803 37.9367 21.7683C38.0729 22.1562 38.0851 22.5769 37.9715 22.972C37.8579 23.3672 37.6241 23.7173 37.3026 23.9738L30.2494 29.616C27.5328 31.8035 24.1496 32.9974 20.6608 32.9998Z" fill="black"/>
<path d="M20.6608 32.9998C19.4904 32.9992 18.3239 32.8664 17.1834 32.6041L7.92609 30.475C7.8908 30.467 7.85744 30.4521 7.82793 30.4312C7.79841 30.4103 7.77334 30.3838 7.75414 30.3531C7.73495 30.3225 7.72202 30.2883 7.7161 30.2527C7.71018 30.217 7.71138 30.1805 7.71964 30.1453C7.72715 30.1098 7.74174 30.0762 7.76255 30.0464C7.78335 30.0167 7.80995 29.9914 7.84074 29.9722C7.87152 29.9529 7.90588 29.9401 7.94175 29.9344C7.97763 29.9287 8.01428 29.9303 8.04952 29.939L17.3068 32.0637C19.4876 32.5705 21.7551 32.5748 23.9377 32.0763C26.1204 31.5778 28.1609 30.5896 29.9048 29.1865L36.958 23.5443C37.1898 23.3588 37.3583 23.106 37.4401 22.8208C37.5219 22.5355 37.513 22.2319 37.4147 21.9519C37.3164 21.6719 37.1335 21.4293 36.8912 21.2577C36.649 21.086 36.3594 20.9938 36.0624 20.9938C35.7203 20.9938 35.3894 21.1159 35.1293 21.3381L32.1295 23.9077C31.4479 24.4909 30.5802 24.8114 29.683 24.8115H28.9725C28.8994 24.8115 28.8293 24.7825 28.7777 24.7309C28.726 24.6792 28.697 24.6092 28.697 24.5362C28.697 24.4632 28.726 24.3931 28.7777 24.3415C28.8293 24.2899 28.8994 24.2609 28.9725 24.2609H29.683C30.4489 24.2608 31.1896 23.9868 31.771 23.4885L34.7708 20.9189C35.1306 20.611 35.5888 20.442 36.0624 20.4424C36.4738 20.4419 36.8753 20.5692 37.2111 20.8068C37.5469 21.0443 37.8005 21.3803 37.9367 21.7683C38.0729 22.1562 38.0851 22.5769 37.9715 22.972C37.8579 23.3672 37.6241 23.7173 37.3026 23.9738L30.2494 29.616C27.5328 31.8035 24.1496 32.9974 20.6608 32.9998Z" stroke="black" stroke-width="1.15166" mask="url(#path-1-outside-1_704_436)"/>
<mask id="path-2-outside-2_704_436" maskUnits="userSpaceOnUse" x="6.70972" y="18.6479" width="26" height="7" fill="black">
<rect fill="white" x="6.70972" y="18.6479" width="26" height="7"/>
<path d="M29.7959 24.8161H17.4227C17.3496 24.8161 17.2795 24.7871 17.2279 24.7355C17.1762 24.6838 17.1472 24.6138 17.1472 24.5408C17.1472 24.4678 17.1762 24.3977 17.2279 24.3461C17.2795 24.2945 17.3496 24.2655 17.4227 24.2655H29.7959C30.0234 24.2647 30.2422 24.1779 30.4083 24.0224C30.5743 23.867 30.6753 23.6544 30.6909 23.4276C30.7064 23.2007 30.6354 22.9764 30.4921 22.7998C30.3488 22.6231 30.1439 22.5073 29.9186 22.4755L13.7227 20.2546C12.6105 20.1035 11.4782 20.2665 10.454 20.7252L8.09706 21.7825C8.03052 21.8123 7.95485 21.8144 7.88672 21.7885C7.81859 21.7625 7.76356 21.7106 7.73375 21.6441C7.70393 21.5776 7.70178 21.502 7.72775 21.4339C7.75372 21.3658 7.8057 21.3108 7.87224 21.281L10.2284 20.2231C11.3459 19.7197 12.5827 19.5416 13.7969 19.7091L29.9928 21.93C30.3573 21.9796 30.6893 22.1656 30.9216 22.4505C31.154 22.7355 31.2694 23.098 31.2443 23.4647C31.2193 23.8314 31.0558 24.1749 30.7869 24.4257C30.5179 24.6765 30.1637 24.8165 29.7959 24.8161Z"/>
</mask>
<path d="M29.7959 24.8161H17.4227C17.3496 24.8161 17.2795 24.7871 17.2279 24.7355C17.1762 24.6838 17.1472 24.6138 17.1472 24.5408C17.1472 24.4678 17.1762 24.3977 17.2279 24.3461C17.2795 24.2945 17.3496 24.2655 17.4227 24.2655H29.7959C30.0234 24.2647 30.2422 24.1779 30.4083 24.0224C30.5743 23.867 30.6753 23.6544 30.6909 23.4276C30.7064 23.2007 30.6354 22.9764 30.4921 22.7998C30.3488 22.6231 30.1439 22.5073 29.9186 22.4755L13.7227 20.2546C12.6105 20.1035 11.4782 20.2665 10.454 20.7252L8.09706 21.7825C8.03052 21.8123 7.95485 21.8144 7.88672 21.7885C7.81859 21.7625 7.76356 21.7106 7.73375 21.6441C7.70393 21.5776 7.70178 21.502 7.72775 21.4339C7.75372 21.3658 7.8057 21.3108 7.87224 21.281L10.2284 20.2231C11.3459 19.7197 12.5827 19.5416 13.7969 19.7091L29.9928 21.93C30.3573 21.9796 30.6893 22.1656 30.9216 22.4505C31.154 22.7355 31.2694 23.098 31.2443 23.4647C31.2193 23.8314 31.0558 24.1749 30.7869 24.4257C30.5179 24.6765 30.1637 24.8165 29.7959 24.8161Z" fill="black"/>
<path d="M29.7959 24.8161H17.4227C17.3496 24.8161 17.2795 24.7871 17.2279 24.7355C17.1762 24.6838 17.1472 24.6138 17.1472 24.5408C17.1472 24.4678 17.1762 24.3977 17.2279 24.3461C17.2795 24.2945 17.3496 24.2655 17.4227 24.2655H29.7959C30.0234 24.2647 30.2422 24.1779 30.4083 24.0224C30.5743 23.867 30.6753 23.6544 30.6909 23.4276C30.7064 23.2007 30.6354 22.9764 30.4921 22.7998C30.3488 22.6231 30.1439 22.5073 29.9186 22.4755L13.7227 20.2546C12.6105 20.1035 11.4782 20.2665 10.454 20.7252L8.09706 21.7825C8.03052 21.8123 7.95485 21.8144 7.88672 21.7885C7.81859 21.7625 7.76356 21.7106 7.73375 21.6441C7.70393 21.5776 7.70178 21.502 7.72775 21.4339C7.75372 21.3658 7.8057 21.3108 7.87224 21.281L10.2284 20.2231C11.3459 19.7197 12.5827 19.5416 13.7969 19.7091L29.9928 21.93C30.3573 21.9796 30.6893 22.1656 30.9216 22.4505C31.154 22.7355 31.2694 23.098 31.2443 23.4647C31.2193 23.8314 31.0558 24.1749 30.7869 24.4257C30.5179 24.6765 30.1637 24.8165 29.7959 24.8161Z" stroke="black" stroke-width="1.15166" mask="url(#path-2-outside-2_704_436)"/>
<path d="M32.0888 11.7475C32.0881 12.8953 31.6339 13.9958 30.826 14.8076C30.0181 15.6195 28.9225 16.0763 27.7796 16.0778H23.2038C22.0609 16.0763 20.9653 15.6195 20.1574 14.8076C19.3495 13.9958 18.8953 12.8953 18.8946 11.7475V5.91182H32.0888V11.7475Z" fill="#FFFE00"/>
<path fill-rule="evenodd" clip-rule="evenodd" d="M30.1237 4.50223H32.7906C32.9768 4.50223 33.1553 4.57648 33.2869 4.70866C33.4185 4.84083 33.4925 5.0201 33.4925 5.20702V11.7475C33.491 13.2689 32.8887 14.7275 31.8177 15.8036C30.7468 16.8796 29.2946 17.4851 27.7796 17.4874H26.1935C25.6585 17.4959 25.0348 17.4909 24.7899 17.4874H23.2038C21.6888 17.4851 20.2366 16.8796 19.1657 15.8036C18.0947 14.7275 17.4925 13.2689 17.491 11.7475V5.20702C17.491 5.0201 17.5649 4.84083 17.6965 4.70866C17.8281 4.57648 18.0067 4.50223 18.1928 4.50223H20.8597V0.704794C20.8597 0.517871 20.9336 0.338604 21.0653 0.20643C21.1969 0.0742549 21.3754 0 21.5615 0C21.7477 0 21.9262 0.0742549 22.0578 0.20643C22.1894 0.338604 22.2633 0.517871 22.2633 0.704794V4.50223H28.7201V0.704794C28.7201 0.517871 28.794 0.338604 28.9256 0.20643C29.0573 0.0742549 29.2358 0 29.4219 0C29.608 0 29.7865 0.0742549 29.9182 0.20643C30.0498 0.338604 30.1237 0.517871 30.1237 0.704794V4.50223ZM30.826 14.8076C31.6339 13.9958 32.0881 12.8953 32.0888 11.7475V5.91182H18.8946V11.7475C18.8953 12.8953 19.3495 13.9958 20.1574 14.8076C20.9653 15.6195 22.0609 16.0763 23.2038 16.0778H27.7796C28.9225 16.0763 30.0181 15.6195 30.826 14.8076Z" fill="black"/>
<path d="M23.3864 12.9682H27.5973C27.7834 12.9682 27.9619 12.8939 28.0936 12.7618C28.2252 12.6296 28.2991 12.4503 28.2991 12.2634C28.2991 12.0765 28.2252 11.8972 28.0936 11.765C27.9619 11.6328 27.7834 11.5586 27.5973 11.5586H23.3864C23.2003 11.5586 23.0217 11.6328 22.8901 11.765C22.7585 11.8972 22.6846 12.0765 22.6846 12.2634C22.6846 12.4503 22.7585 12.6296 22.8901 12.7618C23.0217 12.8939 23.2003 12.9682 23.3864 12.9682Z" fill="black"/>
<mask id="path-5-outside-3_704_436" maskUnits="userSpaceOnUse" x="-0.354248" y="17.7686" width="10" height="16" fill="black">
<rect fill="white" x="-0.354248" y="17.7686" width="10" height="16"/>
<path d="M5.49555 32.9772H3.41119C2.67748 32.9764 1.97409 32.6846 1.45555 32.1659C0.937015 31.6472 0.645752 30.944 0.645752 30.2108V21.532C0.64653 20.7993 0.938137 20.0969 1.45659 19.5788C1.97504 19.0607 2.67799 18.7693 3.41119 18.7686H5.49555C6.22868 18.7693 6.93155 19.0608 7.44989 19.5789C7.96822 20.097 8.25967 20.7994 8.26025 21.532V30.2108C8.26025 30.9438 7.96909 31.6469 7.45071 32.1656C6.93234 32.6843 6.22913 32.9762 5.49555 32.9772ZM3.41119 19.3214C2.82439 19.3218 2.26171 19.5547 1.84657 19.9692C1.43144 20.3836 1.19775 20.9456 1.19678 21.532V30.2108C1.19737 30.7975 1.43086 31.36 1.84601 31.7748C2.26117 32.1897 2.82407 32.423 3.41119 32.4236H5.49555C6.0826 32.423 6.64543 32.1897 7.06047 31.7748C7.4755 31.3599 7.70883 30.7974 7.70922 30.2108V21.532C7.70825 20.9458 7.47466 20.3838 7.05969 19.9694C6.64471 19.555 6.08222 19.322 5.49555 19.3214H3.41119Z"/>
<path d="M3.41119 19.3214C2.82439 19.3218 2.26171 19.5547 1.84657 19.9692C1.43144 20.3836 1.19775 20.9456 1.19678 21.532V30.2108C1.19737 30.7975 1.43086 31.36 1.84601 31.7748C2.26117 32.1897 2.82407 32.423 3.41119 32.4236H5.49555C6.0826 32.423 6.64543 32.1897 7.06047 31.7748C7.4755 31.3599 7.70883 30.7974 7.70922 30.2108V21.532C7.70825 20.9458 7.47466 20.3838 7.05969 19.9694C6.64471 19.555 6.08222 19.322 5.49555 19.3214H3.41119Z"/>
</mask>
<path d="M5.49555 32.9772H3.41119C2.67748 32.9764 1.97409 32.6846 1.45555 32.1659C0.937015 31.6472 0.645752 30.944 0.645752 30.2108V21.532C0.64653 20.7993 0.938137 20.0969 1.45659 19.5788C1.97504 19.0607 2.67799 18.7693 3.41119 18.7686H5.49555C6.22868 18.7693 6.93155 19.0608 7.44989 19.5789C7.96822 20.097 8.25967 20.7994 8.26025 21.532V30.2108C8.26025 30.9438 7.96909 31.6469 7.45071 32.1656C6.93234 32.6843 6.22913 32.9762 5.49555 32.9772ZM3.41119 19.3214C2.82439 19.3218 2.26171 19.5547 1.84657 19.9692C1.43144 20.3836 1.19775 20.9456 1.19678 21.532V30.2108C1.19737 30.7975 1.43086 31.36 1.84601 31.7748C2.26117 32.1897 2.82407 32.423 3.41119 32.4236H5.49555C6.0826 32.423 6.64543 32.1897 7.06047 31.7748C7.4755 31.3599 7.70883 30.7974 7.70922 30.2108V21.532C7.70825 20.9458 7.47466 20.3838 7.05969 19.9694C6.64471 19.555 6.08222 19.322 5.49555 19.3214H3.41119Z" fill="black"/>
<path d="M3.41119 19.3214C2.82439 19.3218 2.26171 19.5547 1.84657 19.9692C1.43144 20.3836 1.19775 20.9456 1.19678 21.532V30.2108C1.19737 30.7975 1.43086 31.36 1.84601 31.7748C2.26117 32.1897 2.82407 32.423 3.41119 32.4236H5.49555C6.0826 32.423 6.64543 32.1897 7.06047 31.7748C7.4755 31.3599 7.70883 30.7974 7.70922 30.2108V21.532C7.70825 20.9458 7.47466 20.3838 7.05969 19.9694C6.64471 19.555 6.08222 19.322 5.49555 19.3214H3.41119Z" fill="#FFFE00"/>
<path d="M5.49555 32.9772H3.41119C2.67748 32.9764 1.97409 32.6846 1.45555 32.1659C0.937015 31.6472 0.645752 30.944 0.645752 30.2108V21.532C0.64653 20.7993 0.938137 20.0969 1.45659 19.5788C1.97504 19.0607 2.67799 18.7693 3.41119 18.7686H5.49555C6.22868 18.7693 6.93155 19.0608 7.44989 19.5789C7.96822 20.097 8.25967 20.7994 8.26025 21.532V30.2108C8.26025 30.9438 7.96909 31.6469 7.45071 32.1656C6.93234 32.6843 6.22913 32.9762 5.49555 32.9772ZM3.41119 19.3214C2.82439 19.3218 2.26171 19.5547 1.84657 19.9692C1.43144 20.3836 1.19775 20.9456 1.19678 21.532V30.2108C1.19737 30.7975 1.43086 31.36 1.84601 31.7748C2.26117 32.1897 2.82407 32.423 3.41119 32.4236H5.49555C6.0826 32.423 6.64543 32.1897 7.06047 31.7748C7.4755 31.3599 7.70883 30.7974 7.70922 30.2108V21.532C7.70825 20.9458 7.47466 20.3838 7.05969 19.9694C6.64471 19.555 6.08222 19.322 5.49555 19.3214H3.41119Z" stroke="black" stroke-width="1.15166" mask="url(#path-5-outside-3_704_436)"/>
<path d="M3.41119 19.3214C2.82439 19.3218 2.26171 19.5547 1.84657 19.9692C1.43144 20.3836 1.19775 20.9456 1.19678 21.532V30.2108C1.19737 30.7975 1.43086 31.36 1.84601 31.7748C2.26117 32.1897 2.82407 32.423 3.41119 32.4236H5.49555C6.0826 32.423 6.64543 32.1897 7.06047 31.7748C7.4755 31.3599 7.70883 30.7974 7.70922 30.2108V21.532C7.70825 20.9458 7.47466 20.3838 7.05969 19.9694C6.64471 19.555 6.08222 19.322 5.49555 19.3214H3.41119Z" stroke="black" stroke-width="1.15166" mask="url(#path-5-outside-3_704_436)"/>
</svg>
