<svg width="68" height="59" viewBox="0 0 68 59" fill="none" xmlns="http://www.w3.org/2000/svg">
<path d="M67.2688 28.7343L50.6828 0H16.8972L0 29.25L16.8972 58.5H50.6828L67.2777 29.7745L67.5801 29.25L67.2688 28.7343ZM16.4526 53.5657L3.01482 30.2902H16.4526V53.5657ZM16.4526 28.2009H3.01482L16.4526 4.94316V28.2009ZM48.2638 2.08929L41.5316 13.7093L21.3883 2.08929H48.2638ZM18.5425 2.85388L40.4822 15.5141L33.1275 28.2009H18.5425V2.85388ZM35.5376 28.2009L42.2876 16.5543L62.4575 28.2009H35.5376ZM62.4842 30.2902L42.2965 41.9457L35.5376 30.2902H62.4842ZM18.5425 30.2902H33.1275L40.4911 42.9859L18.5425 55.655V30.2902ZM41.5316 44.7907L48.2727 56.4107H21.3883L41.5316 44.7907ZM50.0781 55.3705L43.337 43.7416L63.5158 32.095L50.0781 55.3705ZM43.337 14.7495L50.0781 3.12059L63.5158 26.405L43.337 14.7495Z" fill="#FFFE00"/>
</svg>
