<svg width="37" height="34" viewBox="0 0 37 34" fill="none" xmlns="http://www.w3.org/2000/svg">
<rect x="1.31027" y="1.13613" width="34.3795" height="31.7277" rx="5.28795" stroke="black" stroke-width="1.37947"/>
<line x1="7.68973" y1="23.8103" x2="30.3103" y2="23.8103" stroke="black" stroke-width="1.37947" stroke-linecap="round"/>
<line x1="7.68973" y1="27.8103" x2="30.3103" y2="27.8103" stroke="black" stroke-width="1.37947" stroke-linecap="round"/>
<path fill-rule="evenodd" clip-rule="evenodd" d="M10.8925 10.335C10.8285 9.9879 10.9423 9.63871 11.1985 9.39872L12.6293 8.0489L13.4713 6.27017C13.6191 5.95378 13.9172 5.73663 14.2681 5.6922L16.2195 5.44059L17.9451 4.49642C18.2549 4.32826 18.6198 4.32826 18.9279 4.49642L20.6556 5.44059L22.6091 5.69262C22.9579 5.73705 23.2551 5.9542 23.4038 6.27307L24.2446 8.0489L25.6783 9.4008C25.9361 9.64618 26.0482 9.99703 25.9793 10.3421L25.6172 12.2699L25.9814 14.2055C26.0482 14.5394 25.9324 14.9014 25.6766 15.1414L24.2458 16.4912L23.403 18.2708C23.2551 18.5859 22.9579 18.8027 22.6083 18.8475L20.6556 19.0983L18.9279 20.0433C18.7739 20.1272 18.6061 20.1691 18.4371 20.1691C18.2681 20.1691 18.1004 20.1272 17.9464 20.0433L16.2195 19.0983L14.266 18.8475C13.9172 18.8035 13.6191 18.5868 13.4692 18.2675L12.6284 16.49L11.1968 15.1381C10.9469 14.9093 10.8289 14.5493 10.8929 14.2051L11.257 12.2694L10.8925 10.335ZM12.8099 12.2229L12.4528 10.3263L13.7437 9.10808L13.9106 8.92996L14.7381 7.17988L16.5098 6.95152L16.7435 6.90418L18.4363 5.97828L20.0091 6.83816L20.2242 6.93366L22.1349 7.18029L22.9039 8.80415L23.021 9.00553L24.4206 10.3255L24.0905 12.0772L24.0627 12.3164L24.4206 14.2151L23.1177 15.4437L22.9599 15.6185L22.1349 17.3602L20.3674 17.5882L20.1324 17.6351L18.4367 18.5618L16.8652 17.702L16.6501 17.606L14.7385 17.3602L13.9724 15.7414L13.8545 15.5375L12.4536 14.2147L12.7837 12.46L12.8099 12.2229ZM16.8033 15.0513L14.4856 12.7336L15.5714 11.6479L17.527 13.6035L21.439 9.69144L22.5248 10.7772L18.2507 15.0513C18.0506 15.2514 17.789 15.3502 17.527 15.3502C17.265 15.3502 17.003 15.251 16.8033 15.0513Z" fill="black"/>
<path fill-rule="evenodd" clip-rule="evenodd" d="M12.4528 10.3263L12.8099 12.2229L12.7837 12.46L12.4536 14.2147L13.8545 15.5375L13.9724 15.7414L14.7385 17.3602L16.6501 17.606L16.8652 17.702L18.4367 18.5618L20.1324 17.6351L20.3674 17.5882L22.1349 17.3602L22.9599 15.6185L23.1177 15.4437L24.4206 14.2151L24.0627 12.3164L24.0905 12.0772L24.4206 10.3255L23.021 9.00553L22.9039 8.80415L22.1349 7.18029L20.2242 6.93366L20.0091 6.83816L18.4363 5.97828L16.7435 6.90418L16.5098 6.95152L14.7381 7.17988L13.9106 8.92996L13.7437 9.10808L12.4528 10.3263ZM14.4856 12.7336L16.8033 15.0513C17.003 15.251 17.265 15.3502 17.527 15.3502C17.789 15.3502 18.0506 15.2514 18.2507 15.0513L22.5248 10.7772L21.439 9.69144L17.527 13.6035L15.5714 11.6479L14.4856 12.7336Z" fill="#5DA9FF"/>
</svg>
