<?xml version="1.0" encoding="UTF-8"?>
<svg xmlns="http://www.w3.org/2000/svg" xmlns:xlink="http://www.w3.org/1999/xlink" width="40px" height="44px" viewBox="0 0 40 44" version="1.1">
<g id="surface1">
<path style=" stroke:none;fill-rule:nonzero;fill:rgb(0%,18.823529%,40%);fill-opacity:1;" d="M 18.761719 1.480469 L 18.761719 9.640625 C 18.761719 9.800781 18.679688 9.960938 18.519531 10.039062 L 10.359375 14.761719 C 10.199219 14.839844 10.039062 14.839844 9.878906 14.761719 L 2.839844 10.679688 C 2.519531 10.480469 2.519531 10.039062 2.839844 9.839844 L 18.078125 1.039062 C 18.359375 0.878906 18.761719 1.121094 18.761719 1.480469 Z M 18.761719 1.480469 "/>
<path style=" stroke:none;fill-rule:nonzero;fill:rgb(0%,18.823529%,40%);fill-opacity:1;" d="M 37.160156 10.679688 L 30 14.800781 C 29.960938 14.839844 29.921875 14.839844 29.878906 14.839844 C 29.839844 14.839844 29.800781 14.839844 29.761719 14.800781 L 21.480469 10.039062 C 21.320312 9.960938 21.238281 9.800781 21.238281 9.640625 L 21.238281 1.480469 C 21.238281 1.121094 21.640625 0.878906 21.960938 1.078125 L 37.199219 9.878906 C 37.480469 10.039062 37.480469 10.480469 37.160156 10.679688 Z M 37.160156 10.679688 "/>
<path style=" stroke:none;fill-rule:nonzero;fill:rgb(0%,18.823529%,40%);fill-opacity:1;" d="M 37.160156 34.160156 L 21.921875 42.960938 C 21.601562 43.160156 21.199219 42.921875 21.199219 42.558594 L 21.199219 34.359375 C 21.199219 34.199219 21.28125 34.039062 21.441406 33.960938 L 29.71875 29.199219 C 29.71875 29.199219 29.71875 29.199219 29.761719 29.199219 C 29.800781 29.199219 29.839844 29.160156 29.878906 29.160156 C 29.921875 29.160156 29.960938 29.160156 30 29.199219 C 30 29.199219 30.039062 29.199219 30.039062 29.199219 L 37.199219 33.320312 C 37.480469 33.519531 37.480469 33.960938 37.160156 34.160156 Z M 37.160156 34.160156 "/>
<path style=" stroke:none;fill-rule:nonzero;fill:rgb(0%,18.823529%,40%);fill-opacity:1;" d="M 18.761719 34.359375 L 18.761719 42.519531 C 18.761719 42.878906 18.359375 43.121094 18.039062 42.921875 L 2.800781 34.121094 C 2.480469 33.921875 2.480469 33.480469 2.800781 33.28125 L 10 29.199219 C 10.039062 29.160156 10.078125 29.160156 10.121094 29.160156 C 10.160156 29.160156 10.199219 29.160156 10.238281 29.199219 L 18.519531 33.960938 C 18.679688 34.039062 18.761719 34.199219 18.761719 34.359375 Z M 18.761719 34.359375 "/>
<path style=" stroke:none;fill-rule:nonzero;fill:rgb(0%,18.823529%,40%);fill-opacity:1;" d="M 8.921875 17.28125 L 8.921875 26.71875 C 8.921875 26.878906 8.839844 27.039062 8.679688 27.121094 L 1.601562 31.199219 C 1.28125 31.398438 0.878906 31.160156 0.878906 30.800781 L 0.878906 13.199219 C 0.878906 12.839844 1.28125 12.601562 1.601562 12.800781 L 8.640625 16.878906 C 8.800781 16.960938 8.921875 17.121094 8.921875 17.28125 Z M 8.921875 17.28125 "/>
<path style=" stroke:none;fill-rule:nonzero;fill:rgb(36.470588%,66.27451%,100%);fill-opacity:1;" d="M 39.121094 13.199219 L 39.121094 30.800781 C 39.121094 31.160156 38.71875 31.398438 38.398438 31.199219 L 31.078125 27 L 23.160156 22.398438 C 22.839844 22.199219 22.839844 21.761719 23.160156 21.558594 L 31.078125 17 L 38.398438 12.800781 C 38.71875 12.601562 39.121094 12.839844 39.121094 13.199219 Z M 39.121094 13.199219 "/>
</g>
</svg>
