<?xml version="1.0" encoding="utf-8"?>
<!-- Generator: Adobe Illustrator 26.0.3, SVG Export Plug-In . SVG Version: 6.00 Build 0)  -->
<svg version="1.1" id="Ebene_1" xmlns="http://www.w3.org/2000/svg" x="0px" y="0px"
     viewBox="0 0 400 110" style="enable-background:new 0 0 400 110;" xml:space="preserve">
<style type="text/css">
	.st0{fill:#EBF4FF;}
	.st1{fill:#5DA9FF;}
</style>
<g>
	<path class="st0" d="M197.5,24.5c-17.6,0-30.6,12.7-30.6,30.6c0,17.8,13,30.6,30.6,30.6S228,72.9,228,55.1
		C228.1,37.1,215.1,24.5,197.5,24.5z M197.5,78.5c-12.8,0-22.4-9.4-22.4-23.4c0-14.1,9.6-23.5,22.4-23.5c12.8,0,22.3,9.4,22.3,23.5
		C219.8,69.1,210.3,78.5,197.5,78.5z"/>
	<path class="st0" d="M288.3,37.5v47.6h8.1V37.5H288.3z"/>
	<path class="st0" d="M339.9,85.7h-8.7c-11.3,0-17.6-6.4-17.6-17.5V37.5h8.1v30.2c0,7.1,2.7,11,9.5,11h5.6L339.9,85.7z"/>
	<polygon class="st0" points="366.2,69 364.1,73.7 362.2,78.3 355.7,63.9 343.9,37.5 352.3,37.5 364,63.9 364.5,65 	"/>
	<g>
		<polygon class="st0" points="349.7,31.8 302,31.8 302,24.9 346.7,24.9 		"/>
	</g>
	<rect x="288.3" y="24.9" class="st0" width="8.1" height="6.9"/>
	<path class="st0" d="M124.5,41.3c0-5.7,4.8-9.9,15.7-9.9c6.2,0,12.5,1.5,17.7,5.1l3.5-6.5c-5-3.4-13.5-5.6-21.3-5.6
		c-15.3,0-23.8,7.3-23.8,17.2c0,23.8,39,11.4,39,27.1c0,5.9-4.7,9.8-16.1,9.8c-8.5,0-16.6-3-21.4-6.7l-3.7,6.4
		c4.9,4.2,14.5,7.4,24.5,7.4c15.7,0,24.8-6.7,24.8-17.2C163.5,45.3,124.5,57.6,124.5,41.3z"/>
	<g>
		<g>
			<g>
				<g>
					<path class="st1" d="M98.2,32.9v44.2c0,1.2-1.3,1.9-2.3,1.3l-38.2-22c-1-0.6-1-2,0-2.6L96,31.6C97,31.1,98.2,31.8,98.2,32.9z"
						/>
				</g>
				<g>
					<path class="st0" d="M43.7,1.4L5.4,23.6c-1,0.6-1,2,0,2.6l17.3,10c0.5,0.3,1,0.3,1.5,0l21-11.8c0.5-0.3,0.8-0.8,0.8-1.3V2.8
						C46,1.6,44.7,0.9,43.7,1.4z M92.8,23.6L54.5,1.4c-1-0.6-2.2,0.2-2.2,1.3V23c0,0.5,0.3,1,0.8,1.3l20.6,12c0.5,0.3,1.1,0.3,1.5,0
						l17.7-10.2C93.8,25.6,93.8,24.2,92.8,23.6z M92.8,83.9L75.3,73.7c-0.5-0.3-1.1-0.3-1.5,0L53,85.7c-0.5,0.3-0.8,0.8-0.8,1.3
						v20.4c0,1.1,1.3,1.9,2.2,1.3l38.3-22.1C93.8,86,93.8,84.5,92.8,83.9z M45.2,85.7l-20.8-12c-0.5-0.3-1-0.3-1.5,0L5.4,83.9
						c-1,0.6-1,2,0,2.6l38.3,22.1c1,0.6,2.3-0.2,2.3-1.3V87C46,86.5,45.7,86,45.2,85.7z M19.8,41.8L2.3,31.6C1.3,31,0,31.7,0,32.9
						v44.2c0,1.2,1.3,1.9,2.3,1.3l17.6-10.3c0.5-0.3,0.8-0.8,0.8-1.3V43.1C20.6,42.5,20.3,42,19.8,41.8z"/>
				</g>
			</g>
		</g>
	</g>
	<polygon class="st1" points="400,24.9 382.6,63.9 380.5,68.6 370.8,90.4 363.2,107.3 355.7,107.3 360.9,95.5 363.6,89.2
		363.7,89.2 365.3,85.4 365.3,85.3 369.4,76.1 372.6,68.8 372.7,68.6 374.7,63.9 392,24.9 	"/>
	<g>
		<path class="st0" d="M256.6,76.2l-2.2-5.1L234.1,25h-8.5l24.6,55.5l2.1,4.6h4.2l2.1-4.6L256.6,76.2z"/>
		<path class="st0" d="M274.7,25l-20.3,46.2l-2.2,5.1l-1.9,4.3l2.1,4.6h4.2l2.1-4.6L283.1,25H274.7z"/>
	</g>
</g>
</svg>
